<svg xmlns="http://www.w3.org/2000/svg" xmlns:xlink="http://www.w3.org/1999/xlink" width="186" height="185" viewBox="0 0 186 185"><defs><path id="9jjga" d="M1086.02 1246.4c-8.98.87-15.75 5.22-20.32 13.07-4.56 7.84-10.86 9.68-18.87 5.52-8.02-4.17-16.05-4.2-24.1-.09s-14.32 2.23-18.84-5.65c-4.5-7.87-11.25-12.27-20.22-13.2-8.97-.93-13.25-5.94-12.82-15.03.43-9.08-2.88-16.46-9.93-22.13-7.05-5.68-7.96-12.22-2.73-19.63 5.23-7.41 6.4-15.42 3.51-24.04-2.89-8.61-.15-14.61 8.22-18 8.38-3.38 13.66-9.48 15.85-18.3 2.19-8.83 7.7-12.38 16.57-10.66 8.85 1.72 16.57-.53 23.14-6.76 6.57-6.23 13.12-6.2 19.65.07 6.53 6.27 14.23 8.58 23.1 6.92 8.86-1.66 14.36 1.93 16.5 10.77 2.12 8.84 7.36 14.98 15.7 18.42 8.36 3.44 11.06 9.46 8.1 18.06-2.94 8.6-1.82 16.61 3.36 24.06 5.18 7.44 4.22 13.98-2.87 19.6-7.09 5.63-10.45 12.98-10.08 22.07.36 9.09-3.95 14.07-12.92 14.93z"/><path id="9jjgb" d="M1091.68 1253c-9.97.97-17.5 5.8-22.57 14.52-5.07 8.71-12.06 10.76-20.97 6.13-8.91-4.63-17.83-4.66-26.77-.1-8.94 4.57-15.92 2.48-20.93-6.27-5.02-8.75-12.5-13.64-22.48-14.67-9.96-1.04-14.71-6.6-14.24-16.7.48-10.09-3.2-18.29-11.04-24.6-7.83-6.3-8.84-13.56-3.03-21.8 5.81-8.23 7.11-17.13 3.9-26.7-3.2-9.58-.16-16.24 9.14-20 9.3-3.76 15.17-10.54 17.6-20.35 2.44-9.8 8.57-13.74 18.41-11.84 9.85 1.91 18.42-.6 25.72-7.51 7.3-6.92 14.58-6.9 21.83.07 7.26 6.98 15.81 9.54 25.67 7.7 9.85-1.84 15.96 2.15 18.32 11.97 2.37 9.82 8.19 16.64 17.47 20.46 9.27 3.83 12.27 10.51 9 20.06-3.28 9.55-2.04 18.46 3.72 26.74 5.75 8.27 4.7 15.53-3.19 21.78-7.87 6.25-11.6 14.42-11.2 24.52.4 10.1-4.38 15.63-14.36 16.6z"/><radialGradient id="9jjgc" cx="1035.07" cy="1276.06" r="178.12" gradientUnits="userSpaceOnUse"><stop offset="0" stop-color="#fff" stop-opacity=".1"/><stop offset="1" stop-color="#fff" stop-opacity="0"/></radialGradient><clipPath id="9jjgd"><use fill="#fff" xlink:href="#9jjga"/></clipPath></defs><g><g transform="translate(-942 -1095)"><use fill="#bf9485" xlink:href="#9jjgb"/><use fill="url(#9jjgc)" xlink:href="#9jjgb"/></g><g opacity=".15" transform="translate(-942 -1095)"><use fill="#fff" fill-opacity="0" stroke="#fefefe" stroke-miterlimit="50" stroke-width="2.6" clip-path="url(&quot;#9jjgd&quot;)" xlink:href="#9jjga"/></g></g></svg>