<svg xmlns="http://www.w3.org/2000/svg" xmlns:xlink="http://www.w3.org/1999/xlink" width="188" height="50" viewBox="0 0 188 50"><defs><path id="ml8fa" d="M404.65 83.92c-.2.73-.31 1.33-.31 1.8 0 .66.22 1.15.67 1.48.45.33 1.2.53 2.27.59l-.17.9c-2.07-.1-4.68-.13-7.83-.13-3.9 0-6.74.04-8.54.13l.17-.9a8.76 8.76 0 0 0 2.43-.36c.54-.19.96-.54 1.29-1.05.32-.51.63-1.33.92-2.46l5.93-22.33c.2-1.14.31-1.83.31-2.06 0-.6-.21-1.04-.64-1.3a5.19 5.19 0 0 0-2.33-.5l.24-.9a181.1 181.1 0 0 0 11.49.09c1.45-.03 2.56-.05 3.3-.05 3.96 0 6.9.56 8.8 1.67a5.53 5.53 0 0 1 2.87 5.12c0 2.27-.78 4.32-2.35 6.14a15.96 15.96 0 0 1-6.61 4.35 29.5 29.5 0 0 1-9.78 1.75zm2.37-8.94a7.93 7.93 0 0 0 5.16-2.19 11.5 11.5 0 0 0 2.94-4.76c.6-1.86.9-3.72.9-5.58 0-1.55-.27-2.73-.83-3.52-.55-.8-1.43-1.2-2.63-1.2-.49 0-.81.14-.98.42-.17.27-.34.78-.52 1.51-.17.73-.34 1.38-.48 1.93zm32.67 9.49a42.43 42.43 0 0 0 4.68-9.27 10.14 10.14 0 0 1-3.4-2.98 6.49 6.49 0 0 1-1.28-3.84c0-1.12.3-2.02.92-2.69.62-.66 1.48-1 2.6-1 2.28 0 3.42 1.46 3.42 4.38 0 1.74-.4 3.76-1.2 6.06-.8 2.3-1.87 4.63-3.22 6.99a43.1 43.1 0 0 1-4.45 6.4 29.59 29.59 0 0 1-5.92 5.45 18.64 18.64 0 0 1-6.15 2.83 11.9 11.9 0 0 1-2.63.35c-1.2 0-2.13-.26-2.77-.78a2.65 2.65 0 0 1-.97-2.19 3.2 3.2 0 0 1 1.7-2.85c.54-.3 1.17-.45 1.9-.45 2.16 0 4 1.33 5.52 3.98a21.38 21.38 0 0 0 5.25-3.38l-3.67-22.28a8.94 8.94 0 0 0-.38-1.55c-.11-.26-.3-.39-.56-.39-.2 0-.39.08-.54.22-.15.15-.33.42-.52.8-.19.4-.44 1-.74 1.82l-.95 2.53h-.86l1.12-3.3c.6-1.73 1.38-2.93 2.32-3.61a5.83 5.83 0 0 1 3.5-1.03c1.52 0 2.7.4 3.57 1.19.86.8 1.44 2.18 1.73 4.17zm45.09-3.3l-1.26 3.52a6.67 6.67 0 0 1-2.57 3.52 7.2 7.2 0 0 1-4 1.11 6.48 6.48 0 0 1-2.62-.47 3.26 3.26 0 0 1-1.55-1.28 4.16 4.16 0 0 1-.53-2.18c0-.76.11-1.55.33-2.37l3.91-13.95-12.28 19.84h-.83l-3.12-19.93a85.48 85.48 0 0 1-2.49 12.59c-1.02 3.54-2.46 5.9-4.3 7.07-.72.46-1.54.68-2.44.68-1.07 0-1.97-.2-2.68-.62a3.96 3.96 0 0 1-1.6-1.7 5.25 5.25 0 0 1-.54-2.36c0-.95.2-1.77.6-2.46.41-.68.96-1.2 1.65-1.56a5 5 0 0 1 2.3-.52c1.15 0 2.04.29 2.68.87.65.6.97 1.36.97 2.31a4.5 4.5 0 0 1-1.14 2.95 7.65 7.65 0 0 1-2.86 2.1c.13.1.39.14.77.14.66 0 1.22-.14 1.7-.42 1.37-.8 2.52-2.5 3.45-5.08a46.73 46.73 0 0 0 2.08-7.7c.45-2.57.91-5.64 1.38-9.21l-.1-.73c3.16-.04 5.68-.26 7.55-.64l2.09 14.35 7.98-12.8.24-.9c3.3-.05 6.02-.27 8.13-.65L480 84.86c-.18.66-.26 1.1-.26 1.3 0 .4.22.6.68.6.46 0 .9-.22 1.3-.64.39-.43.78-1.16 1.16-2.2l1.03-2.75zm29.5 0l-1.27 3.52a6.78 6.78 0 0 1-2.55 3.51 6.84 6.84 0 0 1-3.87 1.12c-1.99 0-3.33-.58-4.02-1.75a4.24 4.24 0 0 1-.52-2.18c0-.72.11-1.5.35-2.37l1-3.87a32.9 32.9 0 0 1-3.29 6.32 9.38 9.38 0 0 1-3.22 3.03c-1.09.55-2.34.82-3.77.82-1.36 0-2.4-.31-3.13-.95-.72-.64-1.08-1.57-1.08-2.8 0-.85.19-1.87.57-3.06l4.37-13.36c.15-.44.22-.8.22-1.07 0-.54-.26-.82-.77-.82-.88 0-1.67.95-2.37 2.84l-.95 2.53h-.85l1.12-3.3c1.08-3.1 3.23-4.64 6.43-4.64 1.51 0 2.68.36 3.5 1.07.84.71 1.25 1.77 1.25 3.17 0 1.04-.22 2.22-.66 3.52L496.9 84.1c-.25.79-.37 1.37-.37 1.75 0 .46.15.68.46.68.73 0 1.66-.91 2.8-2.74 1.12-1.83 2.28-4.21 3.49-7.13a90.96 90.96 0 0 0 3.16-9.04l.6-2.29c3.3-.04 6.02-.26 8.15-.64l-5.67 20.17c-.2.62-.29 1.05-.29 1.3 0 .4.23.6.68.6.47 0 .9-.22 1.3-.64.4-.43.79-1.16 1.18-2.2l1.04-2.75zm41.53.22l-1.14 3.3c-1.06 3.09-3.2 4.63-6.44 4.63-2 0-3.4-.63-4.17-1.89a4.6 4.6 0 0 1-.6-2.37c0-1 .23-2.17.68-3.5l3.87-11.64c.22-.64.33-1.13.33-1.45 0-.35-.12-.52-.37-.52-.59 0-1.29.45-2.1 1.35-.8.9-1.71 2.42-2.74 4.57a64.66 64.66 0 0 0-3.16 8.45l-1.85 6.37h-8.02l5.4-18.77c.24-.8.36-1.32.36-1.54 0-.29-.15-.43-.44-.43-1.07 0-2.27 1.2-3.6 3.62a62.8 62.8 0 0 0-4.13 10.15l-1.8 6.97h-7.98l5.5-19.54c.12-.48.19-.85.19-1.12 0-.5-.24-.77-.7-.77-.87 0-1.66.95-2.38 2.84l-1.03 2.74h-.86l1.26-3.51a6.86 6.86 0 0 1 2.58-3.52 6.93 6.93 0 0 1 3.9-1.12c1.55 0 2.67.38 3.36 1.13a4.25 4.25 0 0 1 1.03 2.98c0 .68-.1 1.4-.28 2.2l-.5 1.98a22.12 22.12 0 0 1 2.68-4.77 9.18 9.18 0 0 1 3.12-2.67 8.56 8.56 0 0 1 3.86-.85c2.64 0 3.95 1.2 3.95 3.58 0 .93-.17 2-.52 3.23l-.25.82c.91-1.95 1.86-3.48 2.84-4.6a8.7 8.7 0 0 1 3.03-2.36 8.6 8.6 0 0 1 3.43-.67c2.7 0 4.04 1.18 4.04 3.54 0 .94-.21 2.03-.63 3.27l-4.44 13.36c-.15.44-.22.8-.22 1.08 0 .54.25.81.74.81.9 0 1.7-.94 2.4-2.83l.94-2.53z"/><path id="ml8fb" d="M570 50a5 5 0 1 1 0 10 5 5 0 0 1 0-10z"/></defs><g><g transform="translate(-389 -49)"><use fill="#fff" xlink:href="#ml8fa"/></g><g transform="translate(-389 -49)"><use fill="#e82a2e" xlink:href="#ml8fb"/></g></g></svg>